# xmcd CD database file
#
# Track frame offsets:
#	150
#	11710
#	60441
#	95772
#	130897
#	152655
#	174175
#	206376
#	234484
#
# Disc length: 3465 seconds
#
# Revision: 0
# Processed by: cddbd v1.5.1PL0 Copyright (c) Steve Scherf et al.
# Submitted via: CDex 1.50
#
DISCID=6a0d8709
DTITLE=Yusef Lateef - So Peace
DYEAR=2001
DGENRE=Jazz
TTITLE0=So Peace
TTITLE1=In So Far
TTITLE2=An Instance
TTITLE3=Necessitate
TTITLE4=Split Phase
TTITLE5=Primordial
TTITLE6=Over Print
TTITLE7=Discourse
TTITLE8=Clusterly
EXTD=YEAR: 2001
EXTT0=
EXTT1=
EXTT2=
EXTT3=
EXTT4=
EXTT5=
EXTT6=
EXTT7=
EXTT8=
PLAYORDER=
